<?xml version="1.0" encoding="utf-8"?>
<!-- Generator: Adobe Illustrator 24.2.1, SVG Export Plug-In . SVG Version: 6.00 Build 0)  -->
<svg version="1.1" id="katman_1" xmlns="http://www.w3.org/2000/svg" xmlns:xlink="http://www.w3.org/1999/xlink" x="0px" y="0px"
	 viewBox="0 0 40.5 44.3" style="enable-background:new 0 0 40.5 44.3;" xml:space="preserve">
<style type="text/css">
	.st0{fill:none;stroke:#3C3C3B;stroke-width:0.6;stroke-linecap:round;stroke-linejoin:round;stroke-miterlimit:10;}
</style>
<circle class="st0" cx="16" cy="21.1" r="6.8"/>
<path class="st0" d="M13.5,27.9v2.2l-1,1l1.2,1.2v1.4l-0.9,0.9l1.1,1.1v1.5l-1.1,1.1l1.7,1.7c0.4,0.4,1,0.7,1.7,0.7h2.2V27.5"/>
<path class="st0" d="M18.5,33.2c0,0,1.9,0.2,5.6,0.2c1.8,0,3.5-0.1,4.8-0.1c1.4-0.1,2.4-1.2,2.4-2.5V12.2c0-0.9-0.3-1.7-1-2.3
	L27,6.5c-0.6-0.6-1.5-1-2.3-1h-2.4c-0.9,0-1.7,0.3-2.3,1l-3.2,3.2c-0.6,0.6-1,1.5-1,2.3v2.2"/>
<circle class="st0" cx="15.8" cy="19" r="2"/>
<circle class="st0" cx="23.6" cy="10.9" r="2"/>
<line class="st0" x1="15.8" y1="19" x2="23.6" y2="11.1"/>
</svg>
