<?xml version="1.0" encoding="utf-8"?>
<!-- Generator: Adobe Illustrator 21.0.0, SVG Export Plug-In . SVG Version: 6.00 Build 0)  -->
<svg version="1.1" id="katman_1" xmlns="http://www.w3.org/2000/svg" xmlns:xlink="http://www.w3.org/1999/xlink" x="0px" y="0px"
	 viewBox="0 0 40.5 44.3" style="enable-background:new 0 0 40.5 44.3;" xml:space="preserve">
<style type="text/css">
	.st0{fill:#3C3C3B;}
</style>
<g>
	<path class="st0" d="M34.9,17.2v-2.9l0-0.2c-0.1-0.9-1-1.9-2.2-1.9c-0.3,0-0.6,0.1-0.9,0.2c-0.1-1.1-1-2-1.9-2H27l-0.2,0
		c-0.7,0-1.5,0.6-1.8,1.5c-0.2-0.2-0.4-0.3-0.7-0.3h0c-0.5-4.5-4.4-8.1-9-8.1c-5,0-9.1,4.1-9.1,9.1c0,4.9,3.9,8.9,8.7,9.1
		c-0.1,0.5-0.1,0.9,0,1.1c0.1,0.1,0.5,0.2,0.7,0c0.2-0.2,0.3-0.7,0.2-1.1c4.5-0.2,8.1-3.8,8.6-8.2h0c0.3,0,0.5-0.1,0.7-0.3
		c0.3,0.8,1,1.4,1.8,1.5l0.2,0h2.9c0.2,0,0.5-0.1,0.7-0.2v2.7c0,0.6,0.3,1.1,0.9,1.5c-0.5,0.4-0.8,0.9-0.9,1.5l0,0.2v2.9
		c0,0.6,0.4,1.2,0.9,1.6c-0.5,0.4-0.9,1-0.9,1.5l0,0.2v2.9c-0.2-0.1-0.5-0.2-0.7-0.2H27l-0.2,0c-0.8,0-1.6,0.7-1.8,1.6
		c0-0.1-0.1-0.2-0.1-0.2l-2.6-4.5c-0.4-0.6-1-1-1.7-1h-5.1c-0.7,0-1.4,0.4-1.7,1l-2.6,4.5c-0.4,0.6-0.4,1.4,0,2l2.6,4.5
		c0.4,0.6,1,1,1.7,1h5.1c0.7,0,1.4-0.4,1.7-1l2.6-4.5c0.1-0.1,0.1-0.3,0.2-0.4c0.3,0.8,1,1.3,1.7,1.3l0.2,0h2.9c1,0,2-1,2-2.2
		c0-0.1,0-0.1,0-0.2c0.3,0.1,0.6,0.2,0.9,0.2c1.2,0,2.2-1,2.2-2v-2.9l0-0.2c0-0.6-0.4-1.1-0.9-1.5c0.6-0.4,0.9-1,0.9-1.6v-2.9l0-0.2
		c0-0.5-0.4-1.1-0.9-1.5C34.6,18.3,34.9,17.7,34.9,17.2z M15.3,20.2c-4.2,0-7.6-3.4-7.6-7.6S11.1,5,15.3,5c3.8,0,7,2.8,7.5,6.5h-1.3
		c-0.5-3-3.1-5.2-6.2-5.2C11.8,6.3,9,9.1,9,12.6s2.8,6.3,6.3,6.3c3.2,0,5.8-2.4,6.2-5.4h1.3C22.4,17.2,19.2,20.2,15.3,20.2z
		 M20.1,13.5L20.1,13.5c-0.4,2.3-2.4,4.1-4.8,4.1c-2.7,0-5-2.2-5-5s2.2-5,5-5c2.4,0,4.4,1.7,4.8,3.9h0c-0.5,0-1,0.4-1,1
		C19.1,13,19.6,13.5,20.1,13.5z M23.5,32.6l-1.9,3.3c-0.4,0.6-1,1-1.7,1h-3.8c-0.7,0-1.4-0.4-1.7-1l-1.9-3.3c-0.4-0.6-0.4-1.4,0-2
		l1.9-3.3c0.4-0.6,1-1,1.7-1h3.8c0.7,0,1.4,0.4,1.7,1l1.9,3.3C23.9,31.2,23.9,32,23.5,32.6z M32.8,13.4c0.6,0,1.1,0.5,1.1,1.1h0v2.3
		c0,0.6-0.5,1.1-1.1,1.1s-1.1-0.5-1.1-1.1v-2.3h0C31.7,13.8,32.2,13.4,32.8,13.4z M29.5,13.7h-2.3v0c-0.6,0-1.1-0.5-1.1-1.1
		c0-0.6,0.5-1.1,1.1-1.1v0h2.3c0.6,0,1.1,0.5,1.1,1.1S30.2,13.7,29.5,13.7z M32.8,19.4c0.6,0,1.1,0.5,1.1,1.1h0v2.3
		c0,0.6-0.5,1.1-1.1,1.1s-1.1-0.5-1.1-1.1v-2.3h0C31.7,19.9,32.2,19.4,32.8,19.4z M29.5,32.5h-2.3v0c-0.6,0-1.1-0.5-1.1-1.1
		c0-0.6,0.5-1.1,1.1-1.1v0h2.3c0.6,0,1.1,0.5,1.1,1.1C30.7,32,30.2,32.5,29.5,32.5z M33.9,29c0,0.6-0.5,1.1-1.1,1.1
		s-1.1-0.5-1.1-1.1v-2.3h0c0-0.6,0.5-1.1,1.1-1.1c0.6,0,1.1,0.5,1.1,1.1h0V29z"/>
	<path class="st0" d="M18.9,29c-0.5-0.5-1.2-0.5-1.7,0l-1.8,1.8c-0.5,0.5-0.5,1.2,0,1.7l1.8,1.8c0.5,0.5,1.2,0.5,1.7,0l1.8-1.8
		c0.5-0.5,0.5-1.2,0-1.7L18.9,29z"/>
	<path class="st0" d="M24.7,37.2c-0.1,0.1-0.2,0.5-0.1,0.6c0.2,0.3,1.7,0.4,2.1,0.1C26.5,37.4,25.2,36.9,24.7,37.2z"/>
	<path class="st0" d="M20.5,39.9c-0.5,0.3-0.5,1.7,0,2.2c0.4-0.3,0.9-1.7,0.6-2C21,39.9,20.6,39.8,20.5,39.9z"/>
	<path class="st0" d="M22.9,38.8c0,0-0.1,0.5-0.1,0.6c0.7,1.1,1.1,1.6,1.8,2.6c0,0,0.5,0,0.5,0c0,0,0.1-0.5,0.2-0.5
		c-0.7-1.1-1.1-1.6-1.8-2.6C23.5,38.9,22.9,38.8,22.9,38.8z"/>
	<path class="st0" d="M21.3,22.5c0.2-0.3-0.3-1.7-0.7-2c-0.5,0.5-0.5,1.9,0,2.2C20.8,22.7,21.2,22.6,21.3,22.5z"/>
	<path class="st0" d="M25.1,25.9c0.5,0.3,1.7-0.2,2-0.8c-0.4-0.2-1.9-0.2-2.1,0.2C24.9,25.4,24.9,25.8,25.1,25.9z"/>
	<path class="st0" d="M25.1,20.7c-0.7,1.1-1,1.6-1.8,2.6c0,0,0.1,0.6,0.1,0.6c0,0,0.5-0.1,0.6-0.1c0.7-1.1,1-1.6,1.8-2.6
		c0,0-0.1-0.5-0.2-0.5C25.6,20.7,25.2,20.7,25.1,20.7z"/>
	<path class="st0" d="M11.2,26.9c0.1-0.1,0.1-0.5,0-0.7c-0.2-0.3-1.7-0.1-2.1,0.2C9.4,26.9,10.8,27.2,11.2,26.9z"/>
	<path class="st0" d="M13,24.5c0,0,0-0.6,0-0.6c-0.9-1-1.3-1.4-2.2-2.3c0,0-0.5,0-0.5,0c0,0-0.1,0.5-0.1,0.5c0.9,1,1.3,1.4,2.2,2.3
		C12.4,24.5,13,24.5,13,24.5z"/>
	<path class="st0" d="M11.1,37.2c-0.5-0.3-1.7,0.2-2,0.8c0.4,0.2,1.9,0.2,2.1-0.1C11.3,37.7,11.2,37.3,11.1,37.2z"/>
	<path class="st0" d="M14.9,40c-0.2,0.3,0.3,1.7,0.6,2c0.5-0.5,0.5-1.8,0-2.2C15.4,39.8,15,39.9,14.9,40z"/>
	<path class="st0" d="M12.6,38.9c-0.7,1.1-1.1,1.6-1.8,2.6c0,0,0.1,0.5,0.2,0.5c0,0,0.5,0,0.5,0c0.7-1.1,1.1-1.6,1.8-2.6
		c0,0-0.1-0.5-0.1-0.6C13.1,38.8,12.6,38.9,12.6,38.9z"/>
</g>
</svg>
