<?xml version="1.0" encoding="utf-8"?>
<!-- Generator: Adobe Illustrator 23.1.1, SVG Export Plug-In . SVG Version: 6.00 Build 0)  -->
<svg version="1.1" id="katman_1" xmlns="http://www.w3.org/2000/svg" xmlns:xlink="http://www.w3.org/1999/xlink" x="0px" y="0px"
	 viewBox="0 0 40.5 44.3" style="enable-background:new 0 0 40.5 44.3;" xml:space="preserve">
<style type="text/css">
	.st0{fill:none;stroke:#3C3C3B;stroke-width:0.5;stroke-linecap:round;stroke-linejoin:round;stroke-miterlimit:10;}
	.st1{fill:none;stroke:#3C3C3B;stroke-width:0.1;stroke-linecap:round;stroke-linejoin:round;stroke-dasharray:0.3,0.3;}
	.st2{fill:#3C3C3B;}
</style>
<g>
	<path class="st0" d="M20.5,6.8c-1.4,0-3.1-0.7-3.1-0.7l-0.9,1.3c0,0-2.7,0.9-3.7,1.2c-1,0.3-1.9,0.7-2.5,1.3s-3.2,7-4.3,14
		S5.7,35.4,5.7,35.4H6l0.2,2.3c0,0,1.1,0.5,2.7,0l0-2.2l0.6-0.1c0,0-0.1-7.1,2.6-13.4c0,0-0.1,4.7-0.2,7.1S11.7,33,11.7,33l0.4,0.2
		l0,2.4c0,0,0.9,0.5,8.6,0.5s8.4-0.3,8.4-0.3v-2.6l0.4-0.3c0,0-0.6-7.8-0.4-10.9c0,0,2.4,3.5,2.6,13.4l0.4,0.1v2.2
		c0,0,1.6,0.5,2.7,0l0.1-2l0.4-0.1c0,0,1.1-2.5-0.3-12.4c-1.4-10-4.2-13.2-4.2-13.2s-1-1.1-2.8-1.5c-1.8-0.4-3.4-1.3-3.4-1.3L24,6
		C24,6,23.2,6.8,20.5,6.8z"/>
	<path class="st0" d="M12.1,21.8c0,0,0.2-6.8-1.8-11.9"/>
	<path class="st0" d="M29.2,22.2c0,0-0.2-5.5,1.9-12.2"/>
	<path class="st0" d="M12.1,33.1c0,0,1-0.5,2.6-0.4s3.2,0.2,3.2,0.2V36"/>
	<path class="st1" d="M12.1,33.6c0,0,0.9-0.4,2.1-0.3c1.3,0.1,3.1,0.1,3.1,0.1V36"/>
	<path class="st1" d="M29.3,33.6c0,0-0.9-0.4-2.1-0.3c-1.3,0.1-3.1,0.1-3.1,0.1V36"/>
	<path class="st0" d="M29.2,33.1c0,0-1-0.4-2.2-0.4c-1.3,0.1-3.5,0.2-3.5,0.2l0.1,3.1"/>
	<path class="st0" d="M6,35.4c0,0,1.8-0.7,2.9,0.1"/>
	<path class="st0" d="M32.3,35.5c0,0,1.4-0.7,2.9,0.1"/>
	<path class="st0" d="M17.4,6c0,0,0.2,1.1,1.2,2c1,0.9,1.8,1.1,2.1,1.9c0,0,0.5-0.8,1.3-1.4C22.9,8,23.8,7.1,24,6"/>
	<path class="st0" d="M24.9,7.1c0,0-0.1,2.9-4.2,2.9c-0.2,0-0.4,0-0.7,0c-3.4-0.3-3.5-2.6-3.5-2.6"/>
	<line class="st0" x1="20" y1="10.1" x2="20" y2="36"/>
	<line class="st0" x1="21.4" y1="10.1" x2="21.4" y2="36"/>
	<polygon class="st2" points="15,31 14.4,31 14.6,24.4 15.2,24.4 	"/>
	<polygon class="st2" points="26.5,31 27.1,31 26.8,24.4 26.2,24.4 	"/>
	<rect x="20.4" y="10.9" class="st2" width="0.6" height="1.6"/>
	<rect x="20.6" y="10.3" class="st2" width="0.3" height="0.7"/>
	<line class="st1" x1="15.2" y1="31" x2="15.5" y2="24.4"/>
	<line class="st1" x1="25.9" y1="24.4" x2="26.3" y2="31"/>
	<line class="st1" x1="20.7" y1="12.9" x2="20.7" y2="35.8"/>
</g>
</svg>
