<?xml version="1.0" encoding="utf-8"?>
<!-- Generator: Adobe Illustrator 23.1.1, SVG Export Plug-In . SVG Version: 6.00 Build 0)  -->
<svg version="1.1" id="katman_1" xmlns="http://www.w3.org/2000/svg" xmlns:xlink="http://www.w3.org/1999/xlink" x="0px" y="0px"
	 viewBox="0 0 40.5 44.3" style="enable-background:new 0 0 40.5 44.3;" xml:space="preserve">
<style type="text/css">
	.st0{fill:#3C3C3B;}
</style>
<g>
	<path class="st0" d="M28,20c0.5-0.5,0.8-1,1-1.5l5.9,15.5l3.6-1.2l-0.1-0.3c-0.1-0.2-5.1-19.4-5.6-21.4C32,8.6,30,7.3,28.2,6.6
		L28.6,6l-5-1.4l-0.3,1.9h-5.9l-0.3-1.9L12.1,6l0.3,0.7c-1.7,0.7-3.8,2-4.5,4.6c-0.6,2-5.6,21.2-5.7,21.4l-0.1,0.3l3.6,1.2l5.9-15.5
		c0.2,0.5,0.6,1,1,1.5c0.4,0.4,0.7,0.6,0.9,0.8v5.6c0,0.2,0,1-0.2,1.3C13.1,28,9.6,34,9.2,34.7l-0.1,0.2l0.1,0.2
		c0.1,0.1,1.9,2.4,4.6,3.8c2.6,1.3,5.7,1.3,5.8,1.3c0,0,0,0,0,0l0.3,0l0-14.8L17.5,7.1h5.7l-2.5,18.3l0,14.8l0.3,0c0,0,0,0,0,0
		c0.1,0,3.2,0,5.8-1.3c2.8-1.4,4.6-3.7,4.6-3.8l0.1-0.2l-0.1-0.2c-0.4-0.7-3.9-6.7-4.1-7.1c-0.2-0.3-0.2-1-0.2-1.3v-5.6
		C27.3,20.6,27.7,20.4,28,20z M19.2,24.4l0.1,1v14.1c-0.8,0-3.2-0.2-5.2-1.2c-2.2-1.1-3.9-2.9-4.3-3.5c1.5-2.7,3.8-6.6,4-6.9
		c0.3-0.4,0.3-1.1,0.3-1.6v-5.9L14,20.4c0,0-1.8-1.1-2-2.8c0,0,0,0,0,0l0,0l0,0c-0.2-1.7,0.1-3.5,0.1-3.5L11.5,14
		c0,0.1-0.4,1.8-0.2,3.6l-6,15.8l-2.5-0.8C3.5,30.2,8,13.3,8.5,11.4c0.7-2.4,2.6-3.6,4.2-4.2l3,6.1l-3,1.6L19.2,24.4L19.2,24.4z
		 M19.1,23.2l-5.5-8.1l2.9-1.6l-3.5-7.2l3.7-1L19.1,23.2z M24,5.3l3.7,1l-3.5,7.2l2.9,1.6l-5.5,8.1L24,5.3z M26.9,28
		c0.2,0.3,2.4,4.2,4,6.9c-0.4,0.5-2.1,2.4-4.3,3.5c-2,1-4.4,1.2-5.2,1.2V25.5l0.1-1l0,0l6.5-9.6l-3-1.6l3-6.1
		c1.6,0.6,3.5,1.8,4.2,4.2c0.5,1.9,5,18.7,5.6,21.1l-2.5,0.8l-6-15.8c0.2-1.7-0.1-3.5-0.2-3.6l-0.6,0.1c0,0,0.3,1.8,0.1,3.5l0,0l0,0
		c0,0,0,0,0,0c-0.2,1.6-2,2.7-2,2.8l-0.1,0.1v5.9C26.5,26.9,26.6,27.6,26.9,28z"/>
	<path class="st0" d="M22.6,28.1c-0.4,0-0.7,0.3-0.7,0.7c0,0.4,0.3,0.7,0.7,0.7c0.4,0,0.7-0.3,0.7-0.7C23.3,28.4,23,28.1,22.6,28.1z
		"/>
	<path class="st0" d="M18,29.4c0.4,0,0.7-0.3,0.7-0.7c0-0.4-0.3-0.7-0.7-0.7c-0.4,0-0.7,0.3-0.7,0.7C17.3,29.1,17.6,29.4,18,29.4z"
		/>
</g>
</svg>
